HIERARCHY
ROOT Hips
{
	OFFSET	0.00	0.00	0.00
	CHANNELS 6 Xposition Yposition Zposition Zrotation Xrotation Yrotation
	JOINT LeftUpLeg
	{
		OFFSET	 0.126116	-0.014019	-0.065224
		CHANNELS 3 Zrotation Xrotation Yrotation
		JOINT LeftLeg
		{
			OFFSET	 0.000000	 0.000000	 0.569914
			CHANNELS 3 Zrotation Xrotation Yrotation
			JOINT LeftFoot
			{
				OFFSET	 0.000000	 0.000000	 0.544423
				CHANNELS 3 Zrotation Xrotation Yrotation
				JOINT LeftToeBase
				{
					OFFSET	 0.000000	 0.000000	 0.207117
					CHANNELS 3 Zrotation Xrotation Yrotation
					End Site
					{
						OFFSET	 0.000000	 0.000000	 0.207117
					}
				}
			}
		}
	}
	JOINT RightUpLeg
	{
		OFFSET	-0.124023	-0.008373	-0.065224
		CHANNELS 3 Zrotation Xrotation Yrotation
		JOINT RightLeg
		{
			OFFSET	 0.000000	 0.000000	 0.570047
			CHANNELS 3 Zrotation Xrotation Yrotation
			JOINT RightFoot
			{
				OFFSET	 0.000000	 0.000000	 0.544354
				CHANNELS 3 Zrotation Xrotation Yrotation
				JOINT RightToeBase
				{
					OFFSET	 0.000000	 0.000000	 0.207540
					CHANNELS 3 Zrotation Xrotation Yrotation
					End Site
					{
						OFFSET	 0.000000	 0.000000	 0.207540
					}
				}
			}
		}
	}
	JOINT Spine
	{
		OFFSET	 0.000184	-0.007763	 0.117403
		CHANNELS 3 Zrotation Xrotation Yrotation
		JOINT Spine1
		{
			OFFSET	 0.000000	 0.000000	 0.137269
			CHANNELS 3 Zrotation Xrotation Yrotation
			JOINT Spine2
			{
				OFFSET	 0.000000	 0.000000	 0.156879
				CHANNELS 3 Zrotation Xrotation Yrotation
				JOINT LeftShoulder
				{
					OFFSET	 0.080501	-0.002496	 0.160144
					CHANNELS 3 Zrotation Xrotation Yrotation
					JOINT LeftArm
					{
						OFFSET	 0.000000	 0.000000	 0.164363
						CHANNELS 3 Zrotation Xrotation Yrotation
						JOINT LeftForeArm
						{
							OFFSET	 0.000000	 0.000000	 0.364576
							CHANNELS 3 Zrotation Xrotation Yrotation
							JOINT LeftHand
							{
								OFFSET	 0.000000	 0.000000	 0.360812
								CHANNELS 3 Zrotation Xrotation Yrotation
								JOINT LeftHandIndex1
								{
									OFFSET	 0.000000	 0.000000	 0.086006
									CHANNELS 3 Zrotation Xrotation Yrotation
									JOINT LeftHandIndex2
									{
										OFFSET	 0.000000	 0.000000	 0.047236
										CHANNELS 3 Zrotation Xrotation Yrotation
										JOINT LeftHandIndex3
										{
											OFFSET	-0.004284	-0.000551	 0.038166
											CHANNELS 3 Zrotation Xrotation Yrotation
											End Site
											{
												OFFSET	-0.004284	-0.000551	 0.038166
											}
										}
									}
								}
							}
						}
					}
				}
				JOINT Neck
				{
					OFFSET	 0.000000	 0.000000	 0.176489
					CHANNELS 3 Zrotation Xrotation Yrotation
					JOINT Head
					{
						OFFSET	 0.000000	-0.001747	 0.077940
						CHANNELS 3 Zrotation Xrotation Yrotation
						End Site
						{
							OFFSET	 0.000000	-0.001747	 0.077940
						}
					}
				}
				JOINT RightShoulder
				{
					OFFSET	-0.080363	 0.000306	 0.159706
					CHANNELS 3 Zrotation Xrotation Yrotation
					JOINT RightArm
					{
						OFFSET	 0.000000	 0.000000	 0.164196
						CHANNELS 3 Zrotation Xrotation Yrotation
						JOINT RightForeArm
						{
							OFFSET	 0.000000	 0.000000	 0.365611
							CHANNELS 3 Zrotation Xrotation Yrotation
							JOINT RightHand
							{
								OFFSET	 0.000000	 0.000000	 0.360648
								CHANNELS 3 Zrotation Xrotation Yrotation
								JOINT RightHandIndex1
								{
									OFFSET	 0.000000	 0.000000	 0.069977
									CHANNELS 3 Zrotation Xrotation Yrotation
									JOINT RightHandIndex2
									{
										OFFSET	 0.000000	 0.000000	 0.052305
										CHANNELS 3 Zrotation Xrotation Yrotation
										JOINT RightHandIndex3
										{
											OFFSET	 0.009002	-0.000782	 0.042196
											CHANNELS 3 Zrotation Xrotation Yrotation
											End Site
											{
												OFFSET	 0.009002	-0.000782	 0.042196
											}
										}
									}
								}
							}
						}
					}
				}
			}
		}
	}
}
MOTION
Frames:    6
Frame Time: 0.03333334
-0.045539	 0.238448	 1.003601	 1.282373	 34.523280	-6.476273	-54.144320	-85.615190	 128.823900	 9.433039	-77.433870	 9.618099	-41.505190	 79.145430	 49.189720	-2.385832	 28.452790	-0.000001	 94.973320	-75.807280	-95.563840	-24.028180	-79.785810	-18.603400	 64.929060	 76.468610	-60.327680	 2.384659	 28.388700	-0.000001	-1.689701	 15.732160	 1.398050	-2.849480	 23.600940	 3.755557	-0.187614	-1.829203	 1.886841	-99.059950	 68.189060	 157.124600	 10.621940	-3.706776	-42.813140	-5.306454	 10.427460	-32.574340	-24.880500	-19.277460	-18.457000	-2.027600	 6.559038	 9.033609	-5.188889	 0.308190	 3.541030	-5.234859	 0.342567	 0.430617	 0.082840	 16.089810	-5.299847	 1.390179	-25.256200	-0.434813	 97.356760	 64.606670	-159.346600	-5.625123	 5.227887	 55.442180	-6.488056	 0.545445	 25.116590	 9.007596	-18.215840	 14.446670	 1.803333	 3.979147	-15.098590	 4.898592	 3.004813	-9.310344	 5.224449	 0.395017	 2.014677
-0.045763	 0.237219	 1.016236	 1.075287	 33.290020	-5.760529	-44.651430	-83.201510	 138.784100	 8.133409	-75.997690	 8.299494	-40.264950	 78.616200	 47.677100	-2.385832	 28.452790	-0.000001	 85.030140	-76.049220	-105.735700	-22.168910	-78.195380	-16.682820	 61.130330	 76.416950	-56.204720	 2.384659	 28.388700	-0.000001	-1.488287	 16.156490	 1.235616	-2.418487	 24.809660	 3.200964	-0.329236	-3.639476	 1.533925	-98.310690	 68.997790	 158.244500	 9.977968	-0.332405	-44.819600	-4.812885	 10.199380	-32.872510	-25.265770	-18.420240	-19.376060	-2.027600	 6.559038	 9.033609	-5.188889	 0.308190	 3.541030	-5.234859	 0.342567	 0.430617	-0.623850	 9.770245	-3.785222	 0.871334	-19.040130	-1.290967	 96.980030	 64.105030	-160.739600	-6.479889	 4.838926	 56.808240	-5.904317	 0.830876	 25.426170	 8.245851	-16.551080	 15.965500	 1.803333	 3.979147	-15.098590	 4.898592	 3.004813	-9.310344	 5.224449	 0.395017	 2.014677
-0.045086	 0.236968	 1.033065	 0.759315	 31.697290	-4.932367	-37.742770	-80.095050	 146.159800	 6.966950	-73.908310	 7.097216	-38.699640	 77.953410	 45.673070	-2.385833	 28.452760	 0.000004	 72.127590	-75.622840	-118.879100	-20.366420	-75.880570	-14.780760	 56.676480	 76.199820	-51.310360	 2.384659	 28.388700	-0.000001	-1.454394	 16.756520	 1.110160	-2.039933	 25.711960	 2.727127	-0.481938	-5.663126	 1.132573	-96.939160	 71.045480	 159.443800	 10.124310	 4.331941	-47.211820	-4.244161	 9.846776	-32.997890	-25.819310	-17.927890	-20.984300	-2.027600	 6.559038	 9.033609	-5.188889	 0.308190	 3.541030	-5.234859	 0.342567	 0.430617	-1.074162	 1.962134	-2.387559	 0.434373	-11.500730	-2.185087	 96.386610	 64.765830	-161.683200	-7.434731	 6.425802	 57.780330	-6.182257	 0.714778	 25.937050	 7.387261	-15.125600	 16.899190	 1.803333	 3.979147	-15.098590	 4.898592	 3.004813	-9.310344	 5.224449	 0.395017	 2.014677
-0.043015	 0.238088	 1.053531	 0.497665	 29.716140	-3.990156	-32.852810	-76.337490	 151.588800	 6.500848	-71.213680	 6.552172	-36.484910	 77.190390	 42.732820	-2.385833	 28.452750	 0.000004	 57.941250	-74.115580	-133.235600	-18.299750	-72.945740	-12.593940	 51.990100	 75.817230	-46.163010	 2.384659	 28.388700	-0.000001	-1.500227	 17.534000	 0.904715	-1.630949	 26.366290	 2.115668	-0.593221	-7.741013	 0.872441	-94.637080	 74.676060	 160.459100	 11.543650	 10.422600	-50.805250	-3.647930	 9.319386	-32.698030	-26.487570	-17.995230	-22.557910	-2.027600	 6.559038	 9.033609	-5.188889	 0.308190	 3.541030	-5.234859	 0.342567	 0.430617	-1.409373	-6.540493	-2.251810	 0.358888	-3.312563	-2.105295	 95.186160	 67.075520	-162.854800	-8.914134	 10.074420	 59.362750	-6.743955	 0.457229	 26.741350	 6.998132	-15.082450	 17.611990	 1.803333	 3.979147	-15.098590	 4.898592	 3.004813	-9.310344	 5.224449	 0.395017	 2.014677
-0.037889	 0.237666	 1.084166	 0.729785	 27.178580	-3.003205	-28.454870	-71.094240	 157.025300	 6.077753	-66.852610	 5.967660	-31.587440	 75.975850	 36.823590	-2.385833	 28.452750	 0.000004	 43.441890	-70.351020	-147.675100	-13.737090	-68.579290	-8.005363	 46.469370	 74.967250	-40.791590	 2.384659	 28.388700	-0.000001	-1.587765	 17.772710	 0.271243	-1.388666	 26.722680	 1.298885	-0.649738	-10.248700	 0.527150	-93.457570	 76.168790	 162.248600	 14.814530	 15.158810	-52.833630	-2.632034	 8.939464	-33.644980	-26.011360	-18.421760	-24.482670	-2.027600	 6.559038	 9.033609	-5.188889	 0.308190	 3.541030	-5.234859	 0.342567	 0.430617	-1.669043	-13.798150	-1.776577	 0.301020	 3.636635	-2.264762	 94.003140	 69.245100	-164.224900	-11.518840	 14.169340	 59.160690	-7.344152	 0.174033	 29.512670	 6.505252	-15.555420	 17.949470	 1.803333	 3.979147	-15.098590	 4.898592	 3.004813	-9.310344	 5.224449	 0.395017	 2.014677
-0.031408	 0.232959	 1.117187	 1.356485	 25.220680	-2.266303	-25.758840	-65.955850	 160.870600	 5.466418	-61.839740	 5.190664	-26.058290	 74.475840	 30.440620	-2.385833	 28.452750	 0.000004	 34.444820	-65.748470	-156.360100	-10.349150	-63.651400	-4.664864	 41.128510	 73.658750	-35.601440	 2.384659	 28.388700	-0.000001	-1.659678	 16.640490	-0.464976	-1.175823	 26.656590	 0.520603	-0.708230	-12.437490	 0.187249	-94.249690	 74.304620	 164.326800	 17.994310	 16.556510	-50.816100	-1.287385	 9.056444	-37.002540	-24.606870	-19.084880	-25.400770	-2.027600	 6.559038	 9.033609	-5.188889	 0.308190	 3.541030	-5.234859	 0.342567	 0.430617	-1.754028	-15.051630	-0.987071	 0.352407	 5.060301	-2.525953	 93.896640	 68.234180	-165.815800	-13.971490	 15.839170	 55.810300	-7.794028	-0.099034	 34.793460	 5.714994	-16.052710	 18.123410	 1.803333	 3.979147	-15.098590	 4.898592	 3.004813	-9.310344	 5.224449	 0.395017	 2.014677
